<svg width="81" height="4" viewBox="0 0 81 4" fill="none" xmlns="http://www.w3.org/2000/svg">
<path d="M79.4978 0.399425C79.4773 0.494048 79.4073 0.642152 79.3415 0.654494C78.8889 0.749116 78.5804 1.29216 78.0332 1.11115C77.9221 1.07412 77.7699 1.19754 77.63 1.25102C77.6383 1.36622 77.7535 1.33742 77.807 1.39502C78.0003 1.59249 78.3747 1.30862 78.4652 1.58426C78.5845 1.95041 78.1525 1.8023 78.0209 1.97098C77.4367 2.7115 76.4658 2.93365 75.5895 2.53048C75.3591 2.42352 75.4126 2.76909 75.2233 2.74852C74.3964 2.64979 73.5407 2.87194 72.7302 2.52225C72.5945 2.46466 72.4834 2.52637 72.3723 2.56339C71.7429 2.77732 71.0517 2.57574 70.4428 2.82669C70.1301 2.95422 69.9985 2.65802 69.7969 2.60453C69.188 2.43997 68.608 2.81435 68.0032 2.54282C67.4684 2.30421 66.8307 2.46466 66.2753 2.47288C64.7819 2.49757 63.3091 2.21782 61.8239 2.29187C60.9846 2.33301 60.1371 2.04914 59.302 2.34124C59.2115 2.37415 59.1498 2.30421 59.1127 2.22193C59.0593 2.0944 59.1045 1.99566 59.2279 1.9792C59.5118 1.93806 59.7998 1.87635 60.0837 1.8887C60.89 1.92572 61.6964 1.90515 62.4986 1.7735C60.4992 1.88047 58.4915 1.41559 56.4962 1.91338C56.5003 1.92161 56.5086 1.92984 56.5168 1.93395C56.5044 1.92572 56.4962 1.92161 56.4839 1.91338L56.4921 1.90515C56.0354 2.02446 55.5253 1.62129 55.0728 2.08617C55.4101 2.477 55.8051 2.13142 56.1465 2.17668C56.1671 2.39883 56.0272 2.55928 55.9203 2.54694C55.0728 2.44409 54.25 2.7115 53.4066 2.71561C52.1888 2.71973 50.9752 2.81023 49.7533 2.80201C48.9716 2.79789 48.1859 2.78144 47.4083 2.76087C46.2523 2.73207 45.0962 2.69504 43.9361 2.6539C43.6892 2.64567 43.5082 2.58808 43.2243 2.37003C43.8003 2.33301 44.2775 2.3001 44.7506 2.26718C44.7506 2.11085 44.6766 2.02446 44.5285 2.02857C42.6772 2.10262 40.8299 1.87635 38.9786 2.02446C38.1147 2.0944 37.2384 1.99155 36.3703 2.01212C35.0415 2.04503 33.7209 1.90927 32.3962 1.90104C31.4911 1.89692 30.5695 1.78585 29.6644 1.85578C28.3356 1.95452 27.0068 1.7735 25.6738 1.97098C24.851 2.0944 24.0076 2.02034 23.1725 2.11497C22.9462 2.13965 22.7323 2.20547 22.5183 2.25484C22.3497 2.29187 22.4772 2.39883 22.5801 2.43175C22.5965 2.45232 22.613 2.47288 22.6253 2.48934C22.2509 3.04062 21.7819 3.11878 21.461 2.69093C20.7781 2.96657 20.0828 3.1517 19.3464 3.04885L19.3505 3.05707C19.3423 3.05707 19.3341 3.05707 19.3259 3.05707C19.33 3.05707 19.3382 3.05296 19.3464 3.05296C19.2641 2.9172 19.1819 2.99536 19.0955 3.05296C18.935 3.13524 18.7787 3.22163 18.5894 3.18872C18.5894 3.18872 18.5894 3.18872 18.5894 3.18461C18.3549 3.37797 18.1122 3.41088 17.8078 3.33271C16.8821 3.09821 15.9359 3.26277 15.0102 3.30391C13.9694 3.34917 12.9573 3.2422 11.9247 3.15992C10.8592 3.07353 9.80596 2.93777 8.75277 2.78966C8.25085 2.71973 7.75306 2.63333 7.1524 2.53871C7.55558 2.17256 7.93407 2.4194 8.41542 2.28364C5.68369 1.94629 3.09185 1.62129 0.5 1.30039C1.01426 0.95893 1.58611 1.00418 2.12093 0.950702C3.04248 0.85608 3.96402 0.769686 4.88557 0.666836C6.84797 0.448793 8.82271 0.666836 10.7933 0.666836C12.8051 0.666836 14.8127 0.740888 16.8245 0.761458C18.3673 0.777914 19.91 0.91779 21.4487 0.91779C23.7567 0.91779 26.0688 0.69152 28.3767 0.73266C30.1458 0.765572 31.9148 0.707976 33.688 0.790256C34.7823 0.839624 35.9054 0.757344 37.008 0.81494C39.4065 0.946588 41.8091 0.839624 44.2076 0.888992C46.3921 0.934246 48.5849 0.93836 50.7695 0.839624C53.168 0.728546 55.5664 0.872536 57.9608 0.724432C60.2523 0.584556 62.5521 0.580442 64.8395 0.407653C68.501 0.132015 72.1625 0.0456208 75.8322 0.000366707C76.8566 -0.0119753 77.8563 0.292461 78.8766 0.123787C79.0124 0.103217 79.1605 0.160813 79.2962 0.206067C79.3826 0.234865 79.5266 0.251321 79.4978 0.399425ZM9.78951 2.4482C9.45627 2.27541 9.1436 2.22604 8.81036 2.43175C9.12714 2.43586 9.43981 2.43997 9.78951 2.4482ZM18.6265 3.02828L18.6059 3.04885C18.5771 3.0653 18.5483 3.07764 18.5154 3.0941C18.5442 3.11878 18.5689 3.14347 18.5977 3.16815C18.6018 3.12701 18.6018 3.08587 18.6059 3.04473C18.61 3.04885 18.6265 3.02828 18.6265 3.02828ZM19.2065 2.54694C19.2024 2.52637 19.1983 2.50991 19.1942 2.48934C19.1819 2.49345 19.1572 2.49757 19.1531 2.5058C19.1531 2.52225 19.1572 2.54282 19.1613 2.56339C19.1819 2.55517 19.1942 2.55105 19.2065 2.54694ZM21.93 2.18079C21.9259 2.17256 21.893 2.17256 21.8766 2.18079C21.7408 2.25484 21.856 2.34124 21.8642 2.42352C21.9547 2.36592 21.9918 2.28775 21.93 2.18079ZM29.2201 1.56369C29.2119 1.54723 29.2078 1.53078 29.1996 1.51021C29.179 1.51844 29.1543 1.53078 29.1337 1.53901C29.1461 1.55135 29.1584 1.56369 29.1708 1.57603C29.1872 1.57603 29.2037 1.57192 29.2201 1.56369ZM46.8652 2.29187C46.2235 1.90104 45.5734 2.01623 44.9234 2.26718C45.5693 2.42763 46.2193 2.29187 46.8652 2.29187ZM47.145 2.32067C47.0668 2.31655 46.9846 2.30832 46.9064 2.30421C46.9804 2.40295 47.0627 2.34124 47.145 2.32067ZM47.9102 2.26307C47.4947 2.19313 47.4824 2.19313 47.1861 2.31244C47.4042 2.29598 47.6181 2.28364 47.9102 2.26307ZM48.2928 2.23016L48.2393 2.24661L48.2887 2.2713L48.2928 2.23016ZM48.8852 2.25073C48.8688 2.2425 48.8523 2.22193 48.8359 2.22604C48.8071 2.23016 48.7783 2.25073 48.7536 2.26307C48.77 2.2713 48.7865 2.28364 48.803 2.29187C48.8276 2.27541 48.8564 2.26307 48.8852 2.25073ZM50.7654 2.35358C50.8435 2.35358 50.9217 2.35769 51.004 2.35769C50.9217 2.33301 50.8435 2.18079 50.7654 2.35358ZM51.7445 2.28775C51.728 2.28364 51.7116 2.27541 51.6992 2.27541C51.6416 2.27953 51.6375 2.3001 51.691 2.32478C51.7034 2.33301 51.7239 2.32889 51.7404 2.32067C51.7445 2.32067 51.7445 2.3001 51.7445 2.28775ZM52.5179 2.05737C52.3822 2.12731 52.2464 2.16022 52.1559 2.25073C52.0736 2.33301 52.197 2.34124 52.2382 2.34124C52.3822 2.34124 52.5344 2.34535 52.5179 2.05737ZM53.2749 2.16845C53.2544 2.16845 53.2297 2.20959 53.205 2.23427C53.2338 2.26307 53.2626 2.29187 53.2914 2.32067C53.3243 2.29598 53.3737 2.27541 53.3819 2.2425C53.4107 2.12731 53.3161 2.16845 53.2749 2.16845ZM54.6778 1.96686C54.5256 2.02857 54.4022 2.07794 54.1512 2.18079C54.4598 2.27541 54.6367 2.30421 54.6778 1.96686ZM63.6053 1.71591C63.5765 1.61306 63.4942 1.60072 63.416 1.61717C63.3667 1.6254 63.2926 1.67477 63.2844 1.71179C63.2679 1.81876 63.3543 1.84344 63.4366 1.84756C63.523 1.85578 63.5806 1.81053 63.6053 1.71591Z" fill="#FFCD36"/>
<path d="M42.5986 2.23828C42.0555 2.27119 41.6606 2.29176 41.2656 2.31233C41.6606 2.33702 42.0679 2.81424 42.5986 2.23828Z" fill="#FFCD36"/>
<path d="M80.0496 0.251953C79.9097 0.260181 79.6835 0.214927 79.6958 0.391829C79.7164 0.683924 80.029 0.634556 80.2183 0.70038C80.3664 0.749748 80.5227 0.634556 80.498 0.457653C80.4528 0.173787 80.1977 0.317777 80.0496 0.251953Z" fill="#FFCD36"/>
<path d="M27.8438 2.44806C28.0906 2.43983 28.3374 2.42749 28.5843 2.41926C28.3169 2.27115 28.0659 2.20122 27.8438 2.44806Z" fill="#FFCD36"/>
<path d="M57.9439 2.16482C57.9234 2.19362 57.9563 2.30881 57.9851 2.32116C58.1825 2.39521 58.3183 2.28824 58.4829 2.05786C58.2401 2.02083 58.0632 1.98381 57.9439 2.16482Z" fill="#FFCD36"/>
<path d="M24.3222 2.32422C24.1905 2.32833 24.0753 2.38181 24.063 2.52992C24.0548 2.64511 24.1494 2.64923 24.2358 2.641C24.3592 2.62866 24.4826 2.6122 24.495 2.43941C24.4909 2.32833 24.4004 2.32422 24.3222 2.32422Z" fill="#FFCD36"/>
<path d="M40.0938 2.54795C40.2912 2.37105 40.4722 2.54795 40.608 2.25586C40.4188 2.31346 40.2624 2.2394 40.0938 2.54795Z" fill="#FFCD36"/>
<path d="M78.7977 1.68244C78.7689 1.70301 78.7565 1.82643 78.773 1.83466C78.9005 1.9046 79.0322 1.92517 79.3119 1.7277C79.0404 1.73181 78.9417 1.58371 78.7977 1.68244Z" fill="#FFCD36"/>
<path d="M24.7969 2.63019C25.1137 2.52734 25.307 2.46152 25.5004 2.39569C25.4839 2.37512 25.4675 2.35455 25.451 2.33398C25.2741 2.41215 25.0231 2.21879 24.7969 2.63019Z" fill="#FFCD36"/>
<path d="M26.8516 2.36088C27.0449 2.40202 27.1971 2.41436 27.3535 2.30329C27.193 2.28272 27.0326 2.17575 26.8516 2.36088Z" fill="#FFCD36"/>
<path d="M22.9175 2.74759C22.9586 2.74759 23.0368 2.67765 23.0368 2.64062C23.0245 2.43492 22.8599 2.47606 22.7365 2.44727C22.7324 2.59126 22.7159 2.74759 22.9175 2.74759Z" fill="#FFCD36"/>
<path d="M56.6094 2.32131C56.8192 2.37068 56.9755 2.36656 57.0825 2.18555C56.9344 2.22257 56.7493 2.11972 56.6094 2.32131Z" fill="#FFCD36"/>
<path d="M57.0859 2.18046C57.0901 2.18046 57.0984 2.18046 57.1026 2.1763L57.0943 2.16797C57.0901 2.17213 57.0859 2.1763 57.0859 2.18046Z" fill="#FFCD36"/>
<path d="M26.0002 2.35334C25.9961 2.35746 26.0496 2.43974 26.0578 2.43562C26.1072 2.41505 26.1524 2.37803 26.2142 2.33689C26.1689 2.29986 26.1319 2.25049 26.1195 2.25872C26.0743 2.27929 26.0331 2.31632 26.0002 2.35334Z" fill="#FFCD36"/>
<path d="M30.1097 2.23483C30.0768 2.23071 30.0233 2.2554 30.011 2.28419C29.978 2.35825 30.0233 2.4035 30.0932 2.39527C30.122 2.39527 30.1467 2.35002 30.1714 2.32533C30.1508 2.29242 30.1344 2.23894 30.1097 2.23483Z" fill="#FFCD36"/>
<path d="M26.3677 2.35293C26.3636 2.36116 26.3842 2.38585 26.3924 2.4023C26.4171 2.37762 26.4418 2.35293 26.4665 2.33236C26.4582 2.31591 26.4459 2.29945 26.4377 2.28711C26.413 2.30768 26.3883 2.32825 26.3677 2.35293Z" fill="#FFCD36"/>
<path d="M6.63281 2.39401C6.64104 2.40636 6.64515 2.43515 6.65338 2.43104C6.6863 2.42693 6.71509 2.4187 6.74801 2.41458C6.73978 2.39813 6.73566 2.36933 6.73155 2.37344C6.69864 2.37344 6.66572 2.38579 6.63281 2.39401Z" fill="#FFCD36"/>
<path d="M57.3023 2.08984C57.2406 2.11453 57.1789 2.14333 57.1172 2.16801C57.183 2.17212 57.2488 2.17624 57.3105 2.18035C57.3105 2.15155 57.3064 2.11864 57.3023 2.08984Z" fill="#FFCD36"/>
<path d="M57.102 2.1762C57.1061 2.17208 57.1143 2.17208 57.1184 2.16797C57.1102 2.16797 57.102 2.16797 57.0938 2.16797L57.102 2.1762Z" fill="#FFCD36"/>
<path d="M25.6263 2.22144C25.5358 2.20087 25.4782 2.25024 25.4453 2.33664C25.4618 2.35721 25.4782 2.37778 25.4947 2.39835C25.5646 2.37778 25.6551 2.37778 25.6634 2.2667C25.6634 2.25024 25.6387 2.22144 25.6263 2.22144Z" fill="#FFCD36"/>
<path d="M35.4301 2.2793C35.4013 2.28341 35.3725 2.29987 35.3438 2.31221C35.3561 2.32866 35.3684 2.35335 35.3767 2.35335C35.4096 2.34923 35.4384 2.33278 35.4672 2.32044C35.4507 2.30398 35.4384 2.2793 35.4301 2.2793Z" fill="#FFCD36"/>
<path d="M19.3398 3.06096C19.2616 3.05685 19.1875 3.05685 19.1094 3.05273C19.1875 3.12679 19.2616 3.08565 19.3398 3.06096Z" fill="#FFCD36"/>
<path d="M56.5568 1.96218C56.5444 1.95396 56.528 1.94573 56.5156 1.9375C56.5197 1.94161 56.5197 1.94573 56.5238 1.94573C56.5321 1.95396 56.5444 1.95807 56.5568 1.96218Z" fill="#FFCD36"/>
<path d="M22.7254 2.44433C22.6843 2.38674 22.6431 2.38262 22.5938 2.43611C22.6102 2.45668 22.6267 2.47725 22.639 2.4937C22.6719 2.48136 22.7007 2.4649 22.7254 2.44433Z" fill="#FFCD36"/>
<path d="M22.7308 2.44824C22.735 2.44824 22.735 2.44824 22.7393 2.44824C22.7393 2.44401 22.7393 2.43978 22.7393 2.43555C22.735 2.43978 22.7308 2.43978 22.7266 2.44401C22.7308 2.44824 22.7308 2.44824 22.7308 2.44824Z" fill="#FFCD36"/>
</svg>
