<svg width="152" height="7" viewBox="0 0 152 7" fill="none" xmlns="http://www.w3.org/2000/svg">
<path d="M150.105 0.758955C150.066 0.938748 149.933 1.22016 149.808 1.24362C148.948 1.42341 148.362 2.45527 147.322 2.11131C147.111 2.04096 146.822 2.27547 146.556 2.37709C146.572 2.59597 146.791 2.54125 146.892 2.65069C147.26 3.02591 147.971 2.48653 148.143 3.01028C148.37 3.706 147.549 3.42459 147.299 3.74509C146.189 5.15216 144.344 5.57429 142.679 4.80821C142.241 4.60497 142.343 5.2616 141.983 5.22252C140.412 5.03491 138.786 5.45703 137.246 4.79258C136.988 4.68314 136.777 4.80039 136.566 4.87075C135.37 5.27724 134.057 4.8942 132.9 5.37104C132.305 5.61337 132.055 5.05054 131.672 4.94892C130.515 4.63623 129.413 5.34759 128.264 4.83166C127.248 4.37827 126.036 4.68314 124.981 4.69877C122.143 4.74567 119.345 4.21411 116.523 4.35482C114.928 4.43299 113.318 3.89361 111.731 4.44862C111.559 4.51116 111.441 4.37827 111.371 4.22193C111.27 3.9796 111.355 3.79199 111.59 3.76072C112.129 3.68255 112.677 3.56529 113.216 3.58874C114.748 3.6591 116.28 3.62001 117.805 3.36987C114.006 3.57311 110.191 2.68978 106.399 3.63565C106.407 3.65128 106.423 3.66691 106.439 3.67473C106.415 3.6591 106.399 3.65128 106.376 3.63565L106.392 3.62001C105.524 3.84671 104.555 3.08063 103.695 3.96396C104.336 4.70659 105.086 4.04995 105.735 4.13594C105.774 4.55806 105.508 4.86293 105.305 4.83948C103.695 4.64405 102.131 5.15216 100.529 5.15998C98.2149 5.1678 95.9088 5.33977 93.5871 5.32414C92.1018 5.31632 90.6087 5.28505 89.1313 5.24597C86.9347 5.19125 84.7381 5.12089 82.5336 5.04272C82.0646 5.02709 81.7206 4.91765 81.1812 4.50334C82.2757 4.43299 83.1824 4.37045 84.0814 4.30792C84.0814 4.01087 83.9407 3.84671 83.6593 3.85453C80.1416 3.99523 76.6317 3.56529 73.1139 3.84671C71.4723 3.9796 69.8073 3.78417 68.1579 3.82326C65.6329 3.88579 63.1236 3.62783 60.6065 3.6122C58.8867 3.60438 57.1357 3.39332 55.4159 3.52621C52.8909 3.71382 50.366 3.36987 47.8332 3.74509C46.2698 3.9796 44.6673 3.83889 43.0804 4.01868C42.6504 4.06559 42.244 4.19066 41.8375 4.28447C41.517 4.35482 41.7593 4.55806 41.9547 4.6206C41.986 4.65969 42.0173 4.69877 42.0407 4.73004C41.3293 5.77753 40.4382 5.92606 39.8285 5.11308C38.5308 5.63682 37.2097 5.98859 35.8104 5.79317L35.8182 5.8088C35.8026 5.8088 35.787 5.8088 35.7713 5.8088C35.7792 5.8088 35.7948 5.80098 35.8104 5.80098C35.6541 5.54302 35.4977 5.69154 35.3336 5.80098C35.0287 5.95732 34.7317 6.12148 34.3721 6.05895C34.3721 6.05895 34.3721 6.05895 34.3721 6.05113C33.9265 6.41853 33.4653 6.48107 32.8868 6.33254C31.1279 5.88697 29.33 6.19965 27.5711 6.27782C25.5934 6.36381 23.6704 6.16057 21.7083 6.00423C19.6836 5.84007 17.6824 5.5821 15.6812 5.30069C14.7275 5.1678 13.7817 5.00364 12.6404 4.82384C13.4064 4.12812 14.1256 4.59715 15.0402 4.33919C9.84963 3.69818 4.92481 3.08063 0 2.4709C0.977145 1.82208 2.06373 1.90807 3.07996 1.80645C4.83101 1.62665 6.58205 1.46249 8.3331 1.26707C12.0619 0.85276 15.8141 1.26707 19.5585 1.26707C23.3811 1.26707 27.1959 1.40777 31.0185 1.44686C33.9499 1.47813 36.8814 1.74391 39.805 1.74391C44.1904 1.74391 48.5837 1.31397 52.9691 1.39214C56.3305 1.45468 59.6919 1.34524 63.0611 1.50158C65.1404 1.59538 67.2745 1.43904 69.3695 1.54848C73.9269 1.79863 78.4921 1.59538 83.0496 1.68919C87.2005 1.77518 91.367 1.78299 95.5179 1.59538C100.075 1.38432 104.633 1.65792 109.182 1.37651C113.536 1.11072 117.906 1.10291 122.253 0.774589C129.21 0.250844 136.167 0.0866848 143.14 0.000696786C145.087 -0.0227545 146.986 0.555711 148.925 0.23521C149.183 0.196124 149.464 0.305564 149.722 0.391552C149.886 0.446271 150.16 0.47754 150.105 0.758955ZM17.6512 4.65187C17.018 4.32355 16.4239 4.22975 15.7907 4.6206C16.3926 4.62842 16.9867 4.63623 17.6512 4.65187ZM34.4424 5.75408L34.4033 5.79317C34.3486 5.82443 34.2939 5.84789 34.2314 5.87915C34.2861 5.92606 34.333 5.97296 34.3877 6.01986C34.3955 5.94169 34.3955 5.86352 34.4033 5.78535C34.4112 5.79316 34.4424 5.75408 34.4424 5.75408ZM35.5446 4.83948C35.5368 4.80039 35.529 4.76913 35.5212 4.73004C35.4977 4.73786 35.4508 4.74567 35.443 4.76131C35.443 4.79258 35.4508 4.83166 35.4587 4.87075C35.4977 4.85511 35.5212 4.8473 35.5446 4.83948ZM40.7196 4.14376C40.7118 4.12812 40.6493 4.12812 40.618 4.14376C40.36 4.28447 40.5789 4.44862 40.5945 4.60497C40.7665 4.49553 40.8369 4.347 40.7196 4.14376ZM54.5716 2.97119C54.556 2.93992 54.5482 2.90866 54.5325 2.86957C54.4935 2.88521 54.4465 2.90866 54.4075 2.92429C54.4309 2.94774 54.4544 2.97119 54.4778 2.99464C54.5091 2.99464 54.5404 2.98683 54.5716 2.97119ZM88.0994 4.35482C86.88 3.6122 85.6449 3.83107 84.4097 4.30792C85.637 4.61278 86.8721 4.35482 88.0994 4.35482ZM88.631 4.40954C88.4825 4.40172 88.3261 4.38609 88.1776 4.37827C88.3183 4.56588 88.4747 4.44862 88.631 4.40954ZM90.085 4.3001C89.2955 4.16721 89.272 4.16721 88.7092 4.39391C89.1235 4.36264 89.53 4.33919 90.085 4.3001ZM90.812 4.23756L90.7104 4.26883L90.8042 4.31573L90.812 4.23756ZM91.9377 4.27665C91.9064 4.26101 91.8751 4.22193 91.8439 4.22975C91.7891 4.23756 91.7344 4.27665 91.6875 4.3001C91.7188 4.31573 91.7501 4.33919 91.7813 4.35482C91.8282 4.32355 91.8829 4.3001 91.9377 4.27665ZM95.5101 4.47208C95.6586 4.47208 95.8072 4.47989 95.9635 4.47989C95.8072 4.43299 95.6586 4.14376 95.5101 4.47208ZM97.3706 4.347C97.3393 4.33919 97.3081 4.32355 97.2846 4.32355C97.1752 4.33137 97.1674 4.37045 97.269 4.41736C97.2924 4.43299 97.3315 4.42517 97.3628 4.40954C97.3706 4.40954 97.3706 4.37045 97.3706 4.347ZM98.8402 3.90924C98.5823 4.04214 98.3243 4.10467 98.1523 4.27665C97.996 4.43299 98.2305 4.44862 98.3087 4.44862C98.5823 4.44862 98.8715 4.45644 98.8402 3.90924ZM100.279 4.12031C100.239 4.12031 100.193 4.19848 100.146 4.24538C100.2 4.3001 100.255 4.35482 100.31 4.40954C100.372 4.36264 100.466 4.32355 100.482 4.26101C100.537 4.04214 100.357 4.12031 100.279 4.12031ZM102.944 3.73727C102.655 3.85453 102.42 3.94833 101.944 4.14376C102.53 4.32355 102.866 4.37827 102.944 3.73727ZM119.907 3.26043C119.853 3.065 119.696 3.04155 119.548 3.07282C119.454 3.08845 119.313 3.18226 119.298 3.25261C119.266 3.45585 119.431 3.50276 119.587 3.51057C119.751 3.52621 119.861 3.44022 119.907 3.26043Z" fill="#FFCD36"/>
<path d="M80.0044 4.20703C78.9726 4.26957 78.2221 4.30865 77.4717 4.34774C78.2221 4.39464 78.996 5.30142 80.0044 4.20703Z" fill="#FFCD36"/>
<path d="M151.144 0.533203C150.878 0.548837 150.448 0.462849 150.472 0.798984C150.511 1.354 151.105 1.26019 151.464 1.38527C151.746 1.47907 152.043 1.26019 151.996 0.924058C151.91 0.384678 151.425 0.658277 151.144 0.533203Z" fill="#FFCD36"/>
<path d="M51.9551 4.70406C52.4241 4.68843 52.8931 4.66498 53.3622 4.64934C52.854 4.36793 52.3772 4.23504 51.9551 4.70406Z" fill="#FFCD36"/>
<path d="M109.135 4.1167C109.096 4.17142 109.159 4.3903 109.213 4.41375C109.589 4.55445 109.847 4.35121 110.159 3.91345C109.698 3.8431 109.362 3.77274 109.135 4.1167Z" fill="#FFCD36"/>
<path d="M45.2532 4.43372C45.0031 4.44153 44.7842 4.54316 44.7607 4.82457C44.7451 5.04345 44.9249 5.05127 45.089 5.03563C45.3236 5.01218 45.5581 4.98091 45.5815 4.65259C45.5737 4.44153 45.4017 4.43372 45.2532 4.43372Z" fill="#FFCD36"/>
<path d="M75.2373 4.77962C75.6125 4.44349 75.9565 4.77962 76.2144 4.22461C75.8549 4.33405 75.5578 4.19334 75.2373 4.77962Z" fill="#FFCD36"/>
<path d="M148.78 3.25993C148.725 3.29901 148.701 3.53352 148.733 3.54916C148.975 3.68205 149.225 3.72113 149.757 3.34591C149.241 3.35373 149.053 3.07232 148.78 3.25993Z" fill="#FFCD36"/>
<path d="M46.1602 5.00625C46.7621 4.81082 47.1295 4.68575 47.4969 4.56068C47.4656 4.52159 47.4344 4.48251 47.4031 4.44342C47.0669 4.59195 46.5901 4.22454 46.1602 5.00625Z" fill="#FFCD36"/>
<path d="M50.0811 4.42592C50.4485 4.50409 50.7377 4.52755 51.0347 4.31648C50.7299 4.2774 50.425 4.07415 50.0811 4.42592Z" fill="#FFCD36"/>
<path d="M42.5921 5.26791C42.6703 5.26791 42.8188 5.13502 42.8188 5.06467C42.7953 4.67381 42.4827 4.75199 42.2481 4.69727C42.2403 4.97086 42.2091 5.26791 42.5921 5.26791Z" fill="#FFCD36"/>
<path d="M106.608 4.41226C107.007 4.50607 107.304 4.49825 107.507 4.1543C107.226 4.22465 106.874 4.02922 106.608 4.41226Z" fill="#FFCD36"/>
<path d="M107.529 4.14921C107.533 4.14921 107.542 4.14921 107.546 4.14505L107.538 4.13672C107.533 4.14088 107.529 4.14505 107.529 4.14921Z" fill="#FFCD36"/>
<path d="M48.4555 4.40808C48.4477 4.4159 48.5493 4.57224 48.5649 4.56442C48.6588 4.52534 48.7447 4.45499 48.862 4.37681C48.776 4.30646 48.7057 4.21266 48.6822 4.22829C48.5962 4.26737 48.518 4.33773 48.4555 4.40808Z" fill="#FFCD36"/>
<path d="M56.2504 4.20398C56.1879 4.19616 56.0863 4.24307 56.0628 4.29779C56.0003 4.43849 56.0863 4.52448 56.2192 4.50885C56.2739 4.50885 56.3208 4.42286 56.3677 4.37596C56.3286 4.31342 56.2973 4.2118 56.2504 4.20398Z" fill="#FFCD36"/>
<path d="M49.1426 4.52156C49.1348 4.53719 49.1739 4.58409 49.1895 4.61536C49.2364 4.56846 49.2833 4.52156 49.3302 4.48247C49.3146 4.4512 49.2911 4.41994 49.2755 4.39648C49.2286 4.43557 49.1817 4.47466 49.1426 4.52156Z" fill="#FFCD36"/>
<path d="M11.6533 4.52208C11.669 4.54553 11.6768 4.60025 11.6924 4.59243C11.7549 4.58462 11.8097 4.56898 11.8722 4.56116C11.8566 4.5299 11.8487 4.47518 11.8409 4.48299C11.7784 4.48299 11.7159 4.50645 11.6533 4.52208Z" fill="#FFCD36"/>
<path d="M107.927 3.91797C107.81 3.96487 107.692 4.01959 107.575 4.06649C107.7 4.07431 107.825 4.08213 107.943 4.08994C107.943 4.03522 107.935 3.97269 107.927 3.91797Z" fill="#FFCD36"/>
<path d="M107.547 4.14507C107.551 4.14095 107.56 4.14095 107.564 4.13684C107.556 4.13684 107.547 4.13684 107.539 4.13684L107.547 4.14507Z" fill="#FFCD36"/>
<path d="M47.7561 4.1942C47.5841 4.15511 47.4746 4.24892 47.4121 4.41307C47.4434 4.45216 47.4746 4.49125 47.5059 4.53033C47.6388 4.49125 47.8108 4.49124 47.8264 4.28018C47.8264 4.24892 47.7795 4.1942 47.7561 4.1942Z" fill="#FFCD36"/>
<path d="M66.3692 4.38867C66.3145 4.39649 66.2598 4.42776 66.2051 4.45121C66.2285 4.48248 66.252 4.52938 66.2676 4.52938C66.3302 4.52156 66.3849 4.49029 66.4396 4.46684C66.4083 4.43557 66.3849 4.38867 66.3692 4.38867Z" fill="#FFCD36"/>
<path d="M35.7815 5.88087C35.633 5.87305 35.4923 5.87305 35.3438 5.86523C35.4923 6.00594 35.633 5.92777 35.7815 5.88087Z" fill="#FFCD36"/>
<path d="M106.485 3.64968C106.473 3.64146 106.457 3.63323 106.444 3.625C106.448 3.62911 106.448 3.63323 106.453 3.63323C106.461 3.64146 106.473 3.64557 106.485 3.64968Z" fill="#FFCD36"/>
<path d="M42.2414 4.59502C42.1632 4.48558 42.085 4.47777 41.9912 4.57939C42.0225 4.61847 42.0537 4.65756 42.0772 4.68883C42.1397 4.66538 42.1945 4.63411 42.2414 4.59502Z" fill="#FFCD36"/>
<path d="M42.2327 4.69824C42.237 4.69824 42.237 4.69824 42.2412 4.69824C42.2412 4.69401 42.2412 4.68978 42.2412 4.68555C42.237 4.68978 42.2327 4.68978 42.2285 4.69401C42.2327 4.69824 42.2327 4.69824 42.2327 4.69824Z" fill="#FFCD36"/>
</svg>
